<svg width="22" height="22" viewBox="0 0 22 22" fill="none" xmlns="http://www.w3.org/2000/svg">
<path fill-rule="evenodd" clip-rule="evenodd" d="M5 0.75C4.58579 0.75 4.25 1.08579 4.25 1.5C4.25 1.91421 4.58579 2.25 5 2.25H17C17.4142 2.25 17.75 1.91421 17.75 1.5C17.75 1.08579 17.4142 0.75 17 0.75H5ZM2.25 4C2.25 3.58579 2.58579 3.25 3 3.25H19C19.4142 3.25 19.75 3.58579 19.75 4C19.75 4.41421 19.4142 4.75 19 4.75H3C2.58579 4.75 2.25 4.41421 2.25 4ZM0 8C0 6.89543 0.895431 6 2 6H20C21.1046 6 22 6.89543 22 8V20C22 21.1046 21.1046 22 20 22H2C0.89543 22 0 21.1046 0 20V8Z" fill="#1F1F1E"/>
</svg>
