<svg width="21" height="21" viewBox="0 0 21 21" fill="none" xmlns="http://www.w3.org/2000/svg">
<path fill-rule="evenodd" clip-rule="evenodd" d="M11.8027 1C11.2922 1.88252 11 2.90714 11 4C11 7.31371 13.6863 10 17 10C18.0929 10 19.1175 9.70782 20 9.19731V15C20 18.3137 17.3137 21 14 21H6C2.68629 21 0 18.3137 0 15V7C0 3.68629 2.68629 1 6 1H11.8027Z" fill="#1F1F1E"/>
<path d="M13 4C13 1.79086 14.7909 0 17 0V0C19.2091 0 21 1.79086 21 4V4C21 6.20914 19.2091 8 17 8V8C14.7909 8 13 6.20914 13 4V4Z" fill="#1F1F1E"/>
</svg>
