<svg width="20" height="19" viewBox="0 0 20 19" fill="none" xmlns="http://www.w3.org/2000/svg">
<path fill-rule="evenodd" clip-rule="evenodd" d="M17.5 0H2.5C1.11929 0 0 1.11929 0 2.5V11.6818C0 13.0625 1.11929 14.1818 2.5 14.1818H3.44444V18.0019C3.44444 18.4136 3.91413 18.6488 4.24384 18.4023L9.62259 14.3809C9.79547 14.2517 10.0055 14.1818 10.2214 14.1818H17.5C18.8807 14.1818 20 13.0625 20 11.6818V2.5C20 1.11929 18.8807 0 17.5 0ZM4.25 5C4.25 4.58579 4.58579 4.25 5 4.25H15C15.4142 4.25 15.75 4.58579 15.75 5C15.75 5.41421 15.4142 5.75 15 5.75H5C4.58579 5.75 4.25 5.41421 4.25 5ZM5 8.25C4.58579 8.25 4.25 8.58579 4.25 9C4.25 9.41421 4.58579 9.75 5 9.75H11C11.4142 9.75 11.75 9.41421 11.75 9C11.75 8.58579 11.4142 8.25 11 8.25H5Z" fill="#1F1F1E"/>
</svg>
