<svg width="22" height="22" viewBox="0 0 22 22" fill="none" xmlns="http://www.w3.org/2000/svg">
<path fill-rule="evenodd" clip-rule="evenodd" d="M5 0C4.58579 0 4.25 0.335786 4.25 0.75C4.25 1.16421 4.58579 1.5 5 1.5H17C17.4142 1.5 17.75 1.16421 17.75 0.75C17.75 0.335786 17.4142 0 17 0H5ZM2.25 3.25C2.25 2.83579 2.58579 2.5 3 2.5H19C19.4142 2.5 19.75 2.83579 19.75 3.25C19.75 3.66421 19.4142 4 19 4H3C2.58579 4 2.25 3.66421 2.25 3.25ZM0 7.25C0 6.14543 0.895431 5.25 2 5.25H20C21.1046 5.25 22 6.14543 22 7.25V19.25C22 20.3546 21.1046 21.25 20 21.25H2C0.89543 21.25 0 20.3546 0 19.25V7.25Z" fill="white"/>
</svg>
